<svg width="25" height="25" viewBox="0 0 25 25" fill="none" xmlns="http://www.w3.org/2000/svg">
<path d="M22.1673 19.1916C21.805 20.0287 21.3761 20.7992 20.8792 21.5075C20.2019 22.4732 19.6473 23.1417 19.2199 23.5129C18.5574 24.1222 17.8475 24.4342 17.0874 24.452C16.5417 24.452 15.8836 24.2967 15.1175 23.9817C14.349 23.6682 13.6427 23.5129 12.9969 23.5129C12.3195 23.5129 11.5931 23.6682 10.8161 23.9817C10.0379 24.2967 9.41106 24.4608 8.93176 24.4771C8.20282 24.5082 7.47626 24.1872 6.75102 23.5129C6.28814 23.1092 5.70916 22.417 5.01557 21.4366C4.27141 20.3895 3.6596 19.1754 3.1803 17.7912C2.66699 16.296 2.40967 14.8482 2.40967 13.4466C2.40967 11.841 2.75661 10.4561 3.45153 9.29568C3.99767 8.36356 4.72424 7.62826 5.63359 7.08848C6.54295 6.54869 7.5255 6.27363 8.58363 6.25603C9.16261 6.25603 9.92186 6.43512 10.8654 6.78709C11.8062 7.14024 12.4103 7.31933 12.6752 7.31933C12.8732 7.31933 13.5443 7.10992 14.682 6.69244C15.7579 6.30527 16.6659 6.14496 17.4098 6.20811C19.4255 6.37079 20.9398 7.16538 21.9469 8.59692C20.1442 9.68921 19.2525 11.2191 19.2702 13.1817C19.2865 14.7104 19.841 15.9825 20.931 16.9926C21.4249 17.4614 21.9765 17.8237 22.5903 18.081C22.4572 18.467 22.3167 18.8367 22.1673 19.1916ZM17.5444 1.00015C17.5444 2.19834 17.1066 3.31708 16.2341 4.35258C15.1811 5.58359 13.9075 6.29492 12.5264 6.18268C12.5088 6.03893 12.4986 5.88764 12.4986 5.72866C12.4986 4.5784 12.9994 3.3474 13.8886 2.34088C14.3326 1.83127 14.8972 1.40753 15.5819 1.0695C16.2651 0.736523 16.9114 0.552378 17.5192 0.520844C17.537 0.681023 17.5444 0.841212 17.5444 1.00013V1.00015Z" fill="black"/>
</svg>
