<svg width="20" height="20" viewBox="0 0 20 20" fill="none" xmlns="http://www.w3.org/2000/svg">
<path d="M9.86914 3L9.86914 2.25L9.86908 2.25L9.86914 3ZM15.7393 12.6641L16.4893 12.6641L16.4893 12.6641L15.7393 12.6641ZM13.6895 15.0625L13.7925 15.8054L13.7925 15.8054L13.6895 15.0625ZM9.86914 15.3916L9.86912 16.1416L9.86914 16.1416L9.86914 15.3916ZM6.0498 15.0625L5.94679 15.8054L5.94679 15.8054L6.0498 15.0625ZM4 12.6641L3.25 12.6641L3.25 12.6641L4 12.6641ZM9.86914 3V3.75C11.9762 3.75 13.6846 5.45836 13.6846 7.56543H14.4346H15.1846C15.1846 4.62993 12.8046 2.25 9.86914 2.25V3ZM14.4346 7.56543H13.6846V8.68784H14.4346H15.1846V7.56543H14.4346ZM15.5823 11.7921L14.8798 12.0548C14.9503 12.2435 14.9893 12.4484 14.9893 12.6641L15.7393 12.6641L16.4893 12.6641C16.4893 12.2663 16.4172 11.8836 16.2848 11.5294L15.5823 11.7921ZM15.7393 12.6641L14.9893 12.664C14.9892 13.5092 14.3891 14.2083 13.5864 14.3196L13.6895 15.0625L13.7925 15.8054C15.3711 15.5864 16.4891 14.223 16.4893 12.6641L15.7393 12.6641ZM13.6895 15.0625L13.5864 14.3196C12.4099 14.4827 10.9745 14.6416 9.86914 14.6416L9.86914 15.3916L9.86914 16.1416C11.0833 16.1416 12.604 15.9702 13.7925 15.8054L13.6895 15.0625ZM9.86914 15.3916L9.86916 14.6416C8.76392 14.6416 7.3292 14.4827 6.15281 14.3196L6.0498 15.0625L5.94679 15.8054C7.13513 15.9702 8.65506 16.1416 9.86912 16.1416L9.86914 15.3916ZM6.0498 15.0625L6.15282 14.3196C5.35009 14.2083 4.75008 13.5092 4.75 12.664L4 12.6641L3.25 12.6641C3.25014 14.223 4.36812 15.5865 5.94679 15.8054L6.0498 15.0625ZM4 12.6641L4.75 12.6641C4.75 12.4484 4.7889 12.2435 4.8594 12.0548L4.15688 11.7923L3.45435 11.5297C3.32201 11.8837 3.25 12.2663 3.25 12.6641L4 12.6641ZM5.30469 8.68765H6.05469V7.56543H5.30469H4.55469V8.68765H5.30469ZM5.30469 7.56543H6.05469C6.05469 5.45834 7.76241 3.75018 9.8692 3.75L9.86914 3L9.86908 2.25C6.93366 2.25024 4.55469 4.63021 4.55469 7.56543H5.30469ZM4.15688 11.7923L4.8594 12.0548C5.04015 11.5713 5.27707 11.1763 5.55445 10.5842C5.80558 10.0482 6.05469 9.40718 6.05469 8.68765H5.30469H4.55469C4.55469 9.06865 4.42255 9.46455 4.19611 9.94791C3.99591 10.3753 3.65893 10.9823 3.45435 11.5297L4.15688 11.7923ZM14.4346 8.68784H13.6846C13.6846 9.4073 13.9336 10.0482 14.1847 10.5843C14.4621 11.1764 14.699 11.5712 14.8798 12.0548L15.5823 11.7921L16.2848 11.5294C16.0802 10.9823 15.7432 10.3752 15.5431 9.94796C15.3167 9.46467 15.1846 9.06881 15.1846 8.68784H14.4346Z" fill="black"/>
<path d="M11.5 17.126C11.1495 17.6532 10.5501 18.0006 9.86958 18.0006C9.18905 18.0006 8.58968 17.6532 8.23916 17.126" stroke="black" stroke-width="1.5" stroke-linecap="round"/>
</svg>
