<svg width="20" height="20" viewBox="0 0 20 20" fill="none" xmlns="http://www.w3.org/2000/svg">
<path d="M14 2L14 1.25H14V2ZM19 7L19.75 7V7L19 7ZM19 11.4004L19.75 11.4004V11.4004H19ZM14 16.4004L14 17.1504H14L14 16.4004ZM6 16.4004L6 17.1504H6V16.4004ZM2.625 18.7002L2.1565 18.1145L2.15648 18.1145L2.625 18.7002ZM1 17.9199L0.25 17.9199L0.25 17.9202L1 17.9199ZM1 11.4004L0.25 11.4004L0.25 11.4004L1 11.4004ZM1 7L0.25 7V7H1ZM6 2L6 1.25L6 1.25L6 2ZM5.49131 16.4073L5.02281 15.8217L5.49131 16.4073ZM1.00097 11.4505L0.251015 11.4588L1.00097 11.4505ZM5.50105 16.3749L5.57541 15.6286L5.50105 16.3749ZM14 2L14 2.75C16.3472 2.75 18.25 4.65279 18.25 7L19 7L19.75 7C19.75 3.82436 17.1756 1.25 14 1.25L14 2ZM19 7H18.25V11.4004H19H19.75V7H19ZM19 11.4004L18.25 11.4003C18.2498 13.7475 16.347 15.6504 14 15.6504L14 16.4004L14 17.1504C17.1756 17.1504 19.7498 14.5758 19.75 11.4004L19 11.4004ZM14 16.4004V15.6504H6V16.4004V17.1504H14V16.4004ZM6 16.4004L6 15.6504C5.8588 15.6504 5.71731 15.6427 5.57541 15.6286L5.50105 16.3749L5.4267 17.1212C5.61305 17.1397 5.80438 17.1504 6 17.1504L6 16.4004ZM5.49131 16.4073L5.02281 15.8217L2.1565 18.1145L2.625 18.7002L3.0935 19.2859L5.95981 16.993L5.49131 16.4073ZM2.625 18.7002L2.15648 18.1145C1.9925 18.2457 1.75009 18.1287 1.75 17.9196L1 17.9199L0.25 17.9202C0.250614 19.3876 1.94821 20.2021 3.09352 19.2858L2.625 18.7002ZM1 17.9199H1.75V11.4509H1H0.25V17.9199H1ZM1.00097 11.4505L1.75092 11.4422C1.75083 11.4337 1.75067 11.426 1.75053 11.4201C1.7504 11.4147 1.75023 11.4086 1.75016 11.4058C1.74995 11.3978 1.75 11.398 1.75 11.4003L1 11.4004L0.25 11.4004C0.250001 11.4195 0.250446 11.4364 0.250674 11.4451C0.25082 11.4507 0.250882 11.4529 0.250953 11.4558C0.25101 11.4582 0.251017 11.4589 0.251015 11.4588L1.00097 11.4505ZM1 11.4004H1.75V7H1H0.25V11.4004H1ZM1 7L1.75 7C1.75 4.65279 3.65279 2.75 6 2.75L6 2L6 1.25C2.82436 1.25 0.250001 3.82436 0.25 7L1 7ZM6 2V2.75H14V2V1.25H6V2ZM1 11.4509H1.75C1.75 12.1186 0.942568 12.4534 0.470155 11.981L1.00048 11.4507L1.53081 10.9204C1.05804 10.4476 0.25 10.7826 0.25 11.4509H1ZM5.49242 16.3922L4.94349 16.9033C4.65025 16.5883 4.68675 16.0905 5.02281 15.8217L5.49131 16.4073L5.95981 16.993C6.30524 16.7167 6.34277 16.2049 6.04134 15.8812L5.49242 16.3922ZM1.00048 11.4507L0.470155 11.981C0.945001 12.4559 1.75836 12.1155 1.75092 11.4422L1.00097 11.4505L0.251015 11.4588C0.243585 10.786 1.05633 10.4459 1.53081 10.9204L1.00048 11.4507ZM5.50105 16.3749L5.57541 15.6286C4.88194 15.5595 4.46307 16.3873 4.94349 16.9033L5.49242 16.3922L6.04134 15.8812C6.50876 16.3832 6.10117 17.1884 5.4267 17.1212L5.50105 16.3749Z" fill="#959595"/>
<circle cx="5.5459" cy="9.24512" r="1.125" fill="#959595"/>
<circle cx="10.0459" cy="9.24512" r="1.125" fill="#959595"/>
<circle cx="14.5459" cy="9.24512" r="1.125" fill="#959595"/>
</svg>
