<svg width="20" height="20" viewBox="0 0 20 20" fill="none" xmlns="http://www.w3.org/2000/svg">
<path d="M14.5527 2C17.2849 2.00022 19.4997 4.21506 19.5 6.94727V12.1104C19.5 14.8428 17.2851 17.0584 14.5527 17.0586H6.55176C6.30766 17.0586 6.07054 17.1415 5.87988 17.2939L3.44629 19.2402C2.46034 20.029 1 19.3271 1 18.0645V6.94727C1.00026 4.21506 3.21509 2.00022 5.94727 2H14.5527ZM5.98926 8.49609C5.39523 8.49609 4.91309 8.97823 4.91309 9.57227C4.91318 10.1662 5.39529 10.6475 5.98926 10.6475C6.58312 10.6473 7.06436 10.1661 7.06445 9.57227C7.06445 8.97831 6.58318 8.49622 5.98926 8.49609ZM10.292 8.49609C9.69796 8.49609 9.21582 8.97823 9.21582 9.57227C9.21591 10.1662 9.69802 10.6475 10.292 10.6475C10.8858 10.6473 11.3671 10.1661 11.3672 9.57227C11.3672 8.97833 10.8859 8.49626 10.292 8.49609ZM14.5938 8.49609C13.9997 8.49609 13.5176 8.97823 13.5176 9.57227C13.5177 10.1662 13.9998 10.6475 14.5938 10.6475C15.1876 10.6473 15.6689 10.1661 15.6689 9.57227C15.6689 8.97835 15.1876 8.49629 14.5938 8.49609Z" fill="#015845"/>
</svg>
