<svg width="20" height="20" viewBox="0 0 20 20" fill="none" xmlns="http://www.w3.org/2000/svg">
<path d="M10.75 16C10.75 16.4142 10.4142 16.75 10 16.75C9.58579 16.75 9.25 16.4142 9.25 16V13.7695L10.75 13.7666V16ZM9.55566 4C11.4676 4.00004 13.1232 5.09778 13.9268 6.69727C13.9287 6.70107 13.9333 6.70275 13.9375 6.70215C16.0372 6.40254 18 8.08493 18 10.2227C17.9998 12.0661 16.5964 13.5814 14.7998 13.7598L10.75 13.7666V11.4102L11.4697 12.1299L11.5264 12.1816C11.821 12.4221 12.2556 12.4045 12.5303 12.1299C12.8046 11.8554 12.8219 11.4215 12.582 11.127L12.5303 11.0693L10.8135 9.35254L10.7256 9.27344C10.3041 8.92979 9.69593 8.9298 9.27441 9.27344L9.18652 9.35254L7.46973 11.0693C7.17689 11.3622 7.17699 11.837 7.46973 12.1299C7.76262 12.4228 8.23738 12.4228 8.53027 12.1299L9.25 11.4102V13.7695L5.2002 13.7773H4.66699C3.19431 13.7773 2.00012 12.584 2 11.1113C2 9.64928 3.22098 8.44409 4.67773 8.44434C4.6827 8.44416 4.68695 8.4405 4.6875 8.43555C4.91632 5.94812 7.00853 4 9.55566 4Z" fill="black"/>
</svg>
