<svg width="20" height="20" viewBox="0 0 20 20" fill="none" xmlns="http://www.w3.org/2000/svg">
<path d="M4.19626 15.729H14.964C16.2523 15.729 17 14.9813 17 13.5527V6.17624C17 4.74766 16.2457 4 14.8037 4H4.03605C2.74766 4 2 4.74099 2 6.17624V13.5527C2 14.9813 2.75434 15.729 4.19626 15.729ZM8.749 10.0948L3.88919 5.28838C3.98264 5.26836 4.08945 5.25501 4.20294 5.25501H14.7971C14.9172 5.25501 15.024 5.26836 15.1242 5.29506L10.271 10.0948C9.99065 10.3685 9.75701 10.4887 9.51001 10.4887C9.26302 10.4887 9.02937 10.3618 8.749 10.0948ZM3.24833 6.26969L6.87984 9.84112L3.24833 13.4326V6.26969ZM12.1402 9.84112L15.7517 6.28972V13.4192L12.1402 9.84112ZM4.20294 14.4673C4.08278 14.4673 3.96929 14.4539 3.86916 14.4339L7.69426 10.6422L8.05474 11.0027C8.54206 11.4766 9.00935 11.6769 9.51001 11.6769C10.004 11.6769 10.478 11.4766 10.9586 11.0027L11.3258 10.6422L15.1442 14.4272C15.0374 14.4539 14.9239 14.4673 14.7971 14.4673H4.20294Z" fill="black"/>
</svg>
