<svg width="20" height="20" viewBox="0 0 20 20" fill="none" xmlns="http://www.w3.org/2000/svg">
<path fill-rule="evenodd" clip-rule="evenodd" d="M6.57576 5C5.15321 5 4 6.15321 4 7.57576V12.4242C4 13.8468 5.15321 15 6.57576 15H12.6364C14.0589 15 15.2121 13.8468 15.2121 12.4242V9.69697C15.2121 8.27442 14.0589 7.12121 12.6364 7.12121H11.1478C10.4138 7.12121 9.72501 6.76674 9.2984 6.16948C8.78466 5.45024 8.43308 5 7.7613 5H6.57576ZM9.60606 12.2727C9.35502 12.2727 9.15152 12.4762 9.15152 12.7273C9.15152 12.9783 9.35502 13.1818 9.60606 13.1818H13.2424C13.4935 13.1818 13.697 12.9783 13.697 12.7273C13.697 12.4762 13.4935 12.2727 13.2424 12.2727H9.60606Z" fill="white"/>
<path d="M9 5.76425V7.87879H14.4608C13.9945 7.41081 13.3492 7.12121 12.6364 7.12121H11.1478C10.4138 7.12121 9.72501 6.76674 9.2984 6.16948C9.19354 6.02269 9.09544 5.8871 9 5.76425Z" fill="white"/>
<path d="M9.67758 5.15152C9.79391 5.29838 9.89917 5.44609 9.99749 5.58406L10.0382 5.64108C10.2941 5.99944 10.7074 6.21212 11.1478 6.21212H12.6364C13.521 6.21212 14.3287 6.54178 14.9433 7.08495C14.6033 5.96591 13.5634 5.15152 12.3333 5.15152H9.67758Z" fill="white"/>
</svg>
