<svg width="20" height="20" viewBox="0 0 20 20" fill="none" xmlns="http://www.w3.org/2000/svg">
<g clip-path="url(#clip0_3002_133)">
<path d="M1 9.06341C1 7.83922 1.56058 6.68244 2.52142 5.92388L7.54642 1.95677C8.99966 0.809479 11.0503 0.809479 12.5036 1.95677L17.5286 5.92388C18.4894 6.68244 19.05 7.83922 19.05 9.06341V15C19.05 17.2091 17.2591 19 15.05 19H13.875C13.3227 19 12.875 18.5523 12.875 18V15.3C12.875 14.1954 11.9796 13.3 10.875 13.3H9.175C8.07043 13.3 7.175 14.1954 7.175 15.3V18C7.175 18.5523 6.72728 19 6.175 19H5C2.79086 19 1 17.2091 1 15L1 9.06341Z" fill="#015845" stroke="#015845" stroke-width="1.5"/>
</g>
<defs>
<clipPath id="clip0_3002_133">
<rect width="20" height="20" fill="white"/>
</clipPath>
</defs>
</svg>
