<svg width="20" height="20" viewBox="0 0 20 20" fill="none" xmlns="http://www.w3.org/2000/svg">
<g clip-path="url(#clip0_882_55)">
<path d="M9.5 3.35059C11.5039 3.35059 11.7412 3.35937 12.5293 3.39453C13.2617 3.42676 13.6572 3.5498 13.9209 3.65234C14.2695 3.78711 14.5215 3.95117 14.7822 4.21191C15.0459 4.47559 15.207 4.72461 15.3418 5.07324C15.4443 5.33691 15.5674 5.73535 15.5996 6.46484C15.6348 7.25586 15.6436 7.49316 15.6436 9.49414C15.6436 11.498 15.6348 11.7354 15.5996 12.5234C15.5674 13.2559 15.4443 13.6514 15.3418 13.915C15.207 14.2637 15.043 14.5156 14.7822 14.7764C14.5186 15.04 14.2695 15.2012 13.9209 15.3359C13.6572 15.4385 13.2588 15.5615 12.5293 15.5938C11.7383 15.6289 11.501 15.6377 9.5 15.6377C7.49609 15.6377 7.25879 15.6289 6.4707 15.5938C5.73828 15.5615 5.34277 15.4385 5.0791 15.3359C4.73047 15.2012 4.47852 15.0371 4.21777 14.7764C3.9541 14.5127 3.79297 14.2637 3.6582 13.915C3.55566 13.6514 3.43262 13.2529 3.40039 12.5234C3.36523 11.7324 3.35645 11.4951 3.35645 9.49414C3.35645 7.49023 3.36523 7.25293 3.40039 6.46484C3.43262 5.73242 3.55566 5.33691 3.6582 5.07324C3.79297 4.72461 3.95703 4.47266 4.21777 4.21191C4.48145 3.94824 4.73047 3.78711 5.0791 3.65234C5.34277 3.5498 5.74121 3.42676 6.4707 3.39453C7.25879 3.35937 7.49609 3.35059 9.5 3.35059ZM9.5 2C7.46387 2 7.20898 2.00879 6.40918 2.04395C5.6123 2.0791 5.06445 2.20801 4.58984 2.39258C4.09473 2.58594 3.67578 2.84082 3.25977 3.25977C2.84082 3.67578 2.58594 4.09473 2.39258 4.58691C2.20801 5.06445 2.0791 5.60937 2.04395 6.40625C2.00879 7.20898 2 7.46387 2 9.5C2 11.5361 2.00879 11.791 2.04395 12.5908C2.0791 13.3877 2.20801 13.9355 2.39258 14.4102C2.58594 14.9053 2.84082 15.3242 3.25977 15.7402C3.67578 16.1562 4.09473 16.4141 4.58691 16.6045C5.06445 16.7891 5.60938 16.918 6.40625 16.9531C7.20605 16.9883 7.46094 16.9971 9.49707 16.9971C11.5332 16.9971 11.7881 16.9883 12.5879 16.9531C13.3848 16.918 13.9326 16.7891 14.4072 16.6045C14.8994 16.4141 15.3184 16.1562 15.7344 15.7402C16.1504 15.3242 16.4082 14.9053 16.5986 14.4131C16.7832 13.9355 16.9121 13.3906 16.9473 12.5938C16.9824 11.7939 16.9912 11.5391 16.9912 9.50293C16.9912 7.4668 16.9824 7.21191 16.9473 6.41211C16.9121 5.61523 16.7832 5.06738 16.5986 4.59277C16.4141 4.09473 16.1592 3.67578 15.7402 3.25977C15.3242 2.84375 14.9053 2.58594 14.4131 2.39551C13.9355 2.21094 13.3906 2.08203 12.5938 2.04688C11.791 2.00879 11.5361 2 9.5 2Z" fill="white"/>
<path d="M9.5 5.64746C7.37305 5.64746 5.64746 7.37305 5.64746 9.5C5.64746 11.627 7.37305 13.3525 9.5 13.3525C11.627 13.3525 13.3525 11.627 13.3525 9.5C13.3525 7.37305 11.627 5.64746 9.5 5.64746ZM9.5 11.999C8.12012 11.999 7.00098 10.8799 7.00098 9.5C7.00098 8.12012 8.12012 7.00098 9.5 7.00098C10.8799 7.00098 11.999 8.12012 11.999 9.5C11.999 10.8799 10.8799 11.999 9.5 11.999Z" fill="white"/>
<path d="M14.4043 5.49513C14.4043 5.99318 14 6.39454 13.5049 6.39454C13.0068 6.39454 12.6055 5.99025 12.6055 5.49513C12.6055 4.99708 13.0098 4.59571 13.5049 4.59571C14 4.59571 14.4043 5.00001 14.4043 5.49513Z" fill="white"/>
</g>
<defs>
<clipPath id="clip0_882_55">
<rect width="15" height="15" fill="white" transform="translate(2 2)"/>
</clipPath>
</defs>
</svg>
