<svg width="20" height="20" viewBox="0 0 20 20" fill="none" xmlns="http://www.w3.org/2000/svg">
<path d="M5 9.66211C5 10.0039 5.12695 10.2969 5.40039 10.5508L12.998 17.9922C13.2129 18.207 13.4863 18.3242 13.8086 18.3242C14.4531 18.3242 14.9707 17.8164 14.9707 17.1621C14.9707 16.8398 14.834 16.5566 14.6191 16.332L7.77344 9.66211L14.6191 2.99219C14.834 2.76758 14.9707 2.47461 14.9707 2.16211C14.9707 1.50781 14.4531 1 13.8086 1C13.4863 1 13.2129 1.11719 12.998 1.33203L5.40039 8.76367C5.12695 9.02734 5 9.32031 5 9.66211Z" fill="black"/>
</svg>
