<svg width="20" height="20" viewBox="0 0 20 20" fill="none" xmlns="http://www.w3.org/2000/svg">
<path d="M16.8927 2H4.10729C3.81362 2 3.53198 2.11666 3.32432 2.32432C3.11666 2.53198 3 2.81362 3 3.10729V15.8927C3 16.1864 3.11666 16.468 3.32432 16.6757C3.53198 16.8833 3.81362 17 4.10729 17H16.8927C17.1864 17 17.468 16.8833 17.6757 16.6757C17.8833 16.468 18 16.1864 18 15.8927V3.10729C18 2.81362 17.8833 2.53198 17.6757 2.32432C17.468 2.11666 17.1864 2 16.8927 2ZM7.47083 14.7781H5.21563V7.61458H7.47083V14.7781ZM6.34167 6.62188C6.08585 6.62043 5.8362 6.54325 5.62421 6.40005C5.41222 6.25686 5.2474 6.05408 5.15055 5.81731C5.0537 5.58053 5.02915 5.32037 5.08002 5.06966C5.13088 4.81895 5.25488 4.58892 5.43635 4.40861C5.61782 4.2283 5.84863 4.10579 6.09967 4.05654C6.3507 4.00728 6.6107 4.0335 6.84685 4.13187C7.08299 4.23024 7.28471 4.39635 7.42654 4.60926C7.56837 4.82216 7.64395 5.07231 7.64375 5.32813C7.64616 5.4994 7.61407 5.6694 7.54938 5.828C7.4847 5.98661 7.38874 6.13056 7.26723 6.25129C7.14572 6.37202 7.00116 6.46705 6.84214 6.53072C6.68312 6.59439 6.51292 6.62539 6.34167 6.62188ZM15.7833 14.7844H13.5292V10.8708C13.5292 9.71667 13.0385 9.36042 12.4052 9.36042C11.7365 9.36042 11.0802 9.86458 11.0802 10.9V14.7844H8.825V7.61979H10.9938V8.6125H11.0229C11.2406 8.17188 12.0031 7.41875 13.1667 7.41875C14.425 7.41875 15.7844 8.16563 15.7844 10.3531L15.7833 14.7844Z" fill="black"/>
</svg>
