<svg width="20" height="20" viewBox="0 0 20 20" fill="none" xmlns="http://www.w3.org/2000/svg">
<path d="M6.73771 18H13.8089C14.9749 18 15.5466 17.4208 15.5466 16.157V10.8084C15.5466 9.68756 15.0953 9.10833 14.1775 8.98796V7.23521C14.1775 4.37663 12.2743 3 10.2733 3C8.27232 3 6.36911 4.37663 6.36911 7.23521V8.98796C5.45135 9.10833 5 9.68756 5 10.8084V16.157C5 17.4208 5.57172 18 6.73771 18ZM7.81344 7.0998C7.81344 5.34704 8.92678 4.38415 10.2733 4.38415C11.6123 4.38415 12.7332 5.34704 12.7332 7.0998V8.9654H7.81344V7.0998ZM6.97844 16.6384C6.64744 16.6384 6.48195 16.4804 6.48195 16.0893V10.8761C6.48195 10.4774 6.64744 10.3345 6.97844 10.3345H13.5757C13.9067 10.3345 14.0647 10.4774 14.0647 10.8761V16.0893C14.0647 16.4804 13.9067 16.6384 13.5757 16.6384H6.97844Z" fill="black"/>
</svg>
