<svg width="20" height="20" viewBox="0 0 20 20" fill="none" xmlns="http://www.w3.org/2000/svg">
<path d="M11.5195 3.79204C12.5926 2.71732 14.3333 2.71625 15.4072 3.79008L17.001 5.38383C18.0655 6.44857 18.0772 8.17269 17.0264 9.25102L9.73926 16.7266C9.07797 17.4049 8.18627 17.806 7.24512 17.8536L7.05664 17.8575L5.24902 17.8584C4.04996 17.8584 3.07679 16.9208 3.00391 15.75L3.00098 15.5127L3.08105 13.6426C3.1181 12.7623 3.46276 11.9244 4.05273 11.2754L4.17383 11.1485L11.5195 3.79204ZM5.23438 12.209L5.09277 12.3643C4.78092 12.7414 4.59987 13.2123 4.5791 13.7051L4.50098 15.5762V15.6543C4.52501 16.0448 4.84923 16.3574 5.24902 16.3575H7.05566L7.28223 16.3467C7.80503 16.2939 8.29572 16.0585 8.66602 15.6788L13.8555 10.3536L10.4678 6.96684L5.23438 12.209ZM14.3477 4.85161C13.8595 4.36345 13.0679 4.36406 12.5801 4.85258L11.5283 5.90532L14.9023 9.27934L15.9521 8.20317C16.4297 7.71307 16.4251 6.92933 15.9414 6.44536L14.3477 4.85161Z" fill="black"/>
</svg>
