<svg width="20" height="20" viewBox="0 0 20 20" fill="none" xmlns="http://www.w3.org/2000/svg">
<ellipse cx="2.25" cy="2.25" rx="2.25" ry="2.25" transform="matrix(-1 0 0 1 12.3193 8.25)" stroke="black" stroke-width="1.5"/>
<path d="M10.0694 3L10.0694 2.25L10.0694 2.25L10.0694 3ZM13.4444 5.20312L13.0694 5.85264L13.0695 5.85265L13.4444 5.20312ZM16.0694 10.5L15.3194 10.5L15.3194 10.5001L16.0694 10.5ZM13.4444 15.7959L13.0696 15.1463L13.0694 15.1464L13.4444 15.7959ZM10.0694 18L10.0694 18.75H10.0694V18ZM6.69444 15.7959L7.06947 15.1464L7.06944 15.1464L6.69444 15.7959ZM4.06944 10.5L4.81944 10.5001V10.5H4.06944ZM6.69444 5.20312L7.06944 5.85264L7.06946 5.85263L6.69444 5.20312ZM7.72369 3.89707L7.00464 3.68385L7.72369 3.89707ZM8.35781 3.19551L8.18763 2.46507L8.35781 3.19551ZM3.04376 7.8772L2.34105 7.6151L3.04376 7.8772ZM4.28451 15.2705L4.86297 14.7932L4.28451 15.2705ZM8.35627 17.8028L8.52722 17.0725L8.35627 17.8028ZM7.72267 17.1015L7.00359 17.3146L7.72267 17.1015ZM11.7802 17.8036L11.6096 17.0733L11.7802 17.8036ZM15.8534 15.2717L15.2751 14.7942L15.8534 15.2717ZM17.0951 7.87716L16.3924 8.13927L17.0951 7.87716ZM3.04365 13.1217L2.34093 13.3837L3.04365 13.1217ZM3.37231 12.1259L2.85484 11.583L3.37231 12.1259ZM15.8534 5.72729L15.275 6.20479L15.8534 5.72729ZM5.19296 5.47142L5.06613 6.21062L5.19296 5.47142ZM16.7665 12.1259L17.284 11.583L16.7665 12.1259ZM17.0952 13.1217L17.7979 13.3838L17.0952 13.1217ZM11.78 3.19552L11.6098 3.92595L11.78 3.19552ZM12.4144 3.89713L11.6954 4.1107L12.4144 3.89713ZM10.0694 3V3.75C10.6003 3.75 11.1159 3.81088 11.6098 3.92595L11.78 3.19552L11.9502 2.46508C11.3452 2.32412 10.7154 2.25 10.0694 2.25V3ZM12.4144 3.89713L11.6954 4.1107C11.9058 4.81885 12.3778 5.45333 13.0694 5.85264L13.4444 5.20312L13.8194 4.55361C13.4739 4.35413 13.239 4.03924 13.1333 3.68357L12.4144 3.89713ZM13.4444 5.20312L13.0695 5.85265C13.7001 6.21671 14.4084 6.32397 15.0724 6.20965L14.9452 5.47052L14.8179 4.7314C14.4849 4.78874 14.1339 4.73514 13.8194 4.5536L13.4444 5.20312ZM15.8534 5.72729L15.275 6.20479C15.7483 6.77804 16.128 7.43053 16.3924 8.13927L17.0951 7.87716L17.7978 7.61505C17.4744 6.74795 17.01 5.95019 16.4317 5.24979L15.8534 5.72729ZM16.7664 8.87327L16.2488 8.33052C15.6775 8.87539 15.3194 9.64611 15.3194 10.5H16.0694H16.8194C16.8194 10.0736 16.9968 9.68999 17.284 9.41603L16.7664 8.87327ZM16.0694 10.5L15.3194 10.5001C15.3195 11.354 15.6778 12.1242 16.249 12.6688L16.7665 12.1259L17.284 11.583C16.9967 11.3092 16.8195 10.9261 16.8194 10.4999L16.0694 10.5ZM17.0952 13.1217L16.3925 12.8597C16.1282 13.5684 15.7484 14.2208 15.2751 14.7942L15.8534 15.2717L16.4318 15.7492C17.01 15.0487 17.4745 14.251 17.7979 13.3838L17.0952 13.1217ZM14.9451 15.5285L15.0723 14.7894C14.4083 14.6751 13.7 14.7825 13.0696 15.1463L13.4444 15.7959L13.8193 16.4455C14.1338 16.264 14.4849 16.2104 14.8179 16.2677L14.9451 15.5285ZM13.4444 15.7959L13.0694 15.1464C12.3778 15.5457 11.9058 16.1804 11.6955 16.8884L12.4144 17.102L13.1334 17.3156C13.2391 16.9598 13.4741 16.6448 13.8194 16.4454L13.4444 15.7959ZM11.7802 17.8036L11.6096 17.0733C11.1155 17.1887 10.6 17.25 10.0694 17.25V18V18.75C10.716 18.75 11.3459 18.6752 11.9507 18.534L11.7802 17.8036ZM10.0694 18L10.0694 17.25C9.5382 17.25 9.02208 17.1884 8.52722 17.0725L8.35627 17.8028L8.18533 18.533C8.79092 18.6748 9.42173 18.75 10.0694 18.75L10.0694 18ZM7.72267 17.1015L8.44175 16.8883C8.23204 16.1808 7.76146 15.546 7.06947 15.1464L6.69444 15.7959L6.31941 16.4454C6.66397 16.6443 6.8981 16.9587 7.00359 17.3146L7.72267 17.1015ZM6.69444 15.7959L7.06944 15.1464C6.43916 14.7825 5.73051 14.6745 5.06616 14.7885L5.19295 15.5277L5.31973 16.2669C5.65297 16.2097 6.00465 16.2637 6.31944 16.4454L6.69444 15.7959ZM4.28451 15.2705L4.86297 14.7932C4.39 14.22 4.01052 13.5679 3.74638 12.8596L3.04365 13.1217L2.34093 13.3837C2.66415 14.2505 3.12827 15.0478 3.70605 15.7479L4.28451 15.2705ZM3.37231 12.1259L3.88979 12.6688C4.46104 12.1243 4.81937 11.354 4.81944 10.5001L4.06944 10.5L3.31944 10.4999C3.31941 10.926 3.14215 11.3091 2.85484 11.583L3.37231 12.1259ZM4.06944 10.5H4.81944C4.81944 9.64609 4.46133 8.87537 3.89002 8.33052L3.37241 8.87327L2.8548 9.41602C3.14211 9.69003 3.31944 10.0736 3.31944 10.5H4.06944ZM3.04376 7.8772L3.74647 8.1393C4.01066 7.431 4.39006 6.77886 4.86292 6.20587L4.28446 5.7285L3.70601 5.25113C3.12826 5.95122 2.66427 6.74854 2.34105 7.6151L3.04376 7.8772ZM5.19296 5.47142L5.06613 6.21062C5.73058 6.32462 6.43916 6.21653 7.06944 5.85264L6.69444 5.20312L6.31944 4.55361C6.00449 4.73544 5.65289 4.78937 5.31979 4.73222L5.19296 5.47142ZM6.69444 5.20312L7.06946 5.85263C7.76139 5.45312 8.23278 4.81834 8.44274 4.1103L7.72369 3.89707L7.00464 3.68385C6.89912 4.03966 6.66458 4.35432 6.31942 4.55362L6.69444 5.20312ZM8.35781 3.19551L8.52799 3.92595C9.02209 3.81083 9.53807 3.75 10.0694 3.75L10.0694 3L10.0694 2.25C9.42324 2.25 8.79307 2.32401 8.18763 2.46507L8.35781 3.19551ZM7.72369 3.89707L8.44274 4.1103C8.46799 4.02513 8.50187 3.9669 8.52746 3.93648C8.54945 3.91034 8.55036 3.92074 8.52799 3.92595L8.35781 3.19551L8.18763 2.46507C7.47925 2.63012 7.13545 3.24272 7.00464 3.68385L7.72369 3.89707ZM3.37241 8.87327L3.89002 8.33052C3.81677 8.26066 3.77455 8.19222 3.75764 8.14711C3.74331 8.10888 3.75553 8.11503 3.74647 8.1393L3.04376 7.8772L2.34105 7.6151C2.05378 8.38529 2.48915 9.0673 2.8548 9.41602L3.37241 8.87327ZM5.19295 15.5277L5.06616 14.7885C4.97886 14.8034 4.91182 14.7989 4.87323 14.7894C4.84001 14.7813 4.8486 14.7757 4.86297 14.7932L4.28451 15.2705L3.70605 15.7479C4.16758 16.3072 4.86668 16.3446 5.31973 16.2669L5.19295 15.5277ZM8.35627 17.8028L8.52722 17.0725C8.54933 17.0777 8.54829 17.0879 8.5263 17.0618C8.50073 17.0314 8.46692 16.9733 8.44175 16.8883L7.72267 17.1015L7.00359 17.3146C7.13441 17.756 7.47809 18.3675 8.18533 18.533L8.35627 17.8028ZM12.4144 17.102L11.6955 16.8884C11.6701 16.9737 11.6362 17.032 11.6105 17.0625C11.5884 17.0888 11.5874 17.0785 11.6096 17.0733L11.7802 17.8036L11.9507 18.534C12.6586 18.3687 13.0024 17.7565 13.1334 17.3156L12.4144 17.102ZM15.8534 15.2717L15.2751 14.7942C15.2894 14.7768 15.298 14.7823 15.2649 14.7904C15.2264 14.7998 15.1594 14.8044 15.0723 14.7894L14.9451 15.5285L14.8179 16.2677C15.2712 16.3456 15.9702 16.3083 16.4318 15.7492L15.8534 15.2717ZM17.0951 7.87716L16.3924 8.13927C16.3833 8.11499 16.3956 8.10884 16.3812 8.14707C16.3643 8.1922 16.3221 8.26065 16.2488 8.33052L16.7664 8.87327L17.284 9.41603C17.6497 9.06732 18.0851 8.38528 17.7978 7.61505L17.0951 7.87716ZM3.04365 13.1217L3.74638 12.8596C3.75544 12.8839 3.74323 12.8901 3.75753 12.8519C3.77442 12.8069 3.81659 12.7385 3.88979 12.6688L3.37231 12.1259L2.85484 11.583C2.48904 11.9317 2.05373 12.6136 2.34093 13.3837L3.04365 13.1217ZM14.9452 5.47052L15.0724 6.20965C15.1596 6.19465 15.2265 6.19921 15.2649 6.20863C15.298 6.21673 15.2894 6.22221 15.275 6.20479L15.8534 5.72729L16.4317 5.24979C15.9701 4.6907 15.2712 4.65336 14.8179 4.7314L14.9452 5.47052ZM4.28446 5.7285L4.86292 6.20587C4.84853 6.22331 4.83992 6.21781 4.87314 6.20967C4.91174 6.20021 4.97879 6.19563 5.06613 6.21062L5.19296 5.47142L5.31979 4.73222C4.86681 4.6545 4.1676 4.69178 3.70601 5.25113L4.28446 5.7285ZM16.7665 12.1259L16.249 12.6688C16.3223 12.7386 16.3644 12.8069 16.3813 12.852C16.3956 12.8901 16.3834 12.884 16.3925 12.8597L17.0952 13.1217L17.7979 13.3838C18.0852 12.6136 17.6498 11.9317 17.284 11.583L16.7665 12.1259ZM11.78 3.19552L11.6098 3.92595C11.5875 3.92075 11.5884 3.91038 11.6105 3.93659C11.6361 3.96709 11.6701 4.02542 11.6954 4.1107L12.4144 3.89713L13.1333 3.68357C13.0024 3.24271 12.6585 2.63013 11.9502 2.46508L11.78 3.19552Z" fill="black"/>
</svg>
