<svg width="20" height="20" viewBox="0 0 20 20" fill="none" xmlns="http://www.w3.org/2000/svg">
<path d="M2 7.57129C2 6.46672 2.89543 5.57129 4 5.57129H15C16.1046 5.57129 17 6.46672 17 7.57129V7.94034C17 8.82356 16.4207 9.60221 15.5747 9.856L10.6494 11.3336C9.89963 11.5585 9.10037 11.5585 8.35061 11.3336L3.42531 9.856C2.57934 9.60221 2 8.82356 2 7.94035V7.57129Z" stroke="black" stroke-width="1.5"/>
<path d="M9.5 9.42926L9.5 8.14355" stroke="black" stroke-width="1.5" stroke-linecap="round" stroke-linejoin="round"/>
<path d="M2.625 9.42871L2.625 12.5001C2.625 14.7092 4.41586 16.5001 6.625 16.5001H12.375C14.5841 16.5001 16.375 14.7092 16.375 12.5001V9.42871" stroke="black" stroke-width="1.5"/>
<path d="M12 5.57141V5C12 3.89543 11.1046 3 10 3H9C7.89543 3 7 3.89543 7 5L7 5.57141" stroke="black" stroke-width="1.5"/>
</svg>
