<svg width="20" height="20" viewBox="0 0 20 20" fill="none" xmlns="http://www.w3.org/2000/svg">
<path d="M4.61892 7.52673C3.95189 6.63735 4.58648 5.36816 5.6982 5.36816H14.5123C15.624 5.36816 16.2586 6.63735 15.5916 7.52673V7.52673C15.1051 8.1754 14.8421 8.96438 14.8421 9.77523V13.9997C14.8421 16.2089 13.0512 17.9997 10.8421 17.9997H9.36842C7.15928 17.9997 5.36842 16.2089 5.36842 13.9997V9.77522C5.36842 8.96438 5.10543 8.1754 4.61892 7.52673V7.52673Z" stroke="black" stroke-width="1.5"/>
<path d="M11.6846 14.0532L11.6846 9.31641" stroke="black" stroke-width="1.5" stroke-linecap="round" stroke-linejoin="round"/>
<path d="M8.52637 14.0532L8.52637 9.31641" stroke="black" stroke-width="1.5" stroke-linecap="round" stroke-linejoin="round"/>
<path d="M13.2631 5.36842L12.9294 4.36754C12.6572 3.55086 11.8929 3 11.0321 3H9.17826C8.3174 3 7.55312 3.55086 7.28089 4.36754L6.94727 5.36842" stroke="black" stroke-width="1.5" stroke-linecap="round"/>
</svg>
