<svg width="20" height="20" viewBox="0 0 20 20" fill="none" xmlns="http://www.w3.org/2000/svg">
<path fill-rule="evenodd" clip-rule="evenodd" d="M4.82429 13.3557C3.26448 13.3557 2 12.0913 2 10.5315C2 8.9828 3.29308 7.70665 4.83618 7.70722C4.84137 7.70722 4.84576 7.70323 4.84623 7.69806C5.08832 5.06334 7.30428 3 10.0022 3C12.0274 3 13.781 4.16268 14.632 5.85696C14.6339 5.86081 14.6382 5.86299 14.6424 5.86238C16.8665 5.54456 18.9458 7.32568 18.9458 9.59002C18.9458 11.5427 17.4596 13.1482 15.5566 13.3372L11.223 13.3451V10.7416L12.0609 11.5795C12.3538 11.8724 12.8287 11.8724 13.1216 11.5795C13.4145 11.2866 13.4145 10.8117 13.1216 10.5188L11.3029 8.70018C10.8446 8.24185 10.1015 8.24185 9.64314 8.70018L7.82449 10.5188C7.5316 10.8117 7.5316 11.2866 7.82449 11.5795C8.11739 11.8724 8.59226 11.8724 8.88515 11.5795L9.72304 10.7416V13.3478L5.38915 13.3557H4.82429ZM9.72304 13.3478V15.7093C9.72304 16.1235 10.0588 16.4593 10.473 16.4593C10.8873 16.4593 11.223 16.1235 11.223 15.7093V13.3451L9.72304 13.3478Z" fill="white"/>
</svg>
