<svg width="20" height="20" viewBox="0 0 20 20" fill="none" xmlns="http://www.w3.org/2000/svg">
<path d="M9.99967 4.6665C9.99967 4.6665 5.83004 4.66648 4.79004 4.94515C4.21604 5.09848 3.76499 5.5502 3.61165 6.12354C3.33299 7.16354 3.33301 9.99984 3.33301 9.99984C3.33301 9.99984 3.33299 12.8361 3.61165 13.8761C3.76499 14.4501 4.21671 14.9012 4.79004 15.0545C5.83004 15.3332 9.99967 15.3332 9.99967 15.3332C9.99967 15.3332 14.1693 15.3332 15.2093 15.0545C15.7826 14.9012 16.2344 14.4495 16.3877 13.8761C16.6664 12.8361 16.6663 9.99984 16.6663 9.99984C16.6663 9.99984 16.6664 7.16354 16.3877 6.12354C16.2344 5.5502 15.7826 5.09848 15.2093 4.94515C14.1693 4.66648 9.99967 4.6665 9.99967 4.6665ZM9.99967 5.99984C11.921 5.99984 14.3269 6.08891 14.8643 6.23291C14.9769 6.26291 15.0693 6.35525 15.0999 6.46859C15.2606 7.06725 15.333 8.8945 15.333 9.99984C15.333 11.1052 15.2606 12.9318 15.0999 13.5311C15.0699 13.6438 14.9776 13.7361 14.8643 13.7668C14.3276 13.9108 11.921 13.9998 9.99967 13.9998C8.07901 13.9998 5.67309 13.9108 5.13509 13.7668C5.02242 13.7368 4.93008 13.6444 4.89941 13.5311C4.73875 12.9324 4.66634 11.1052 4.66634 9.99984C4.66634 8.8945 4.73875 7.06729 4.89941 6.46729C4.92941 6.35529 5.02176 6.26291 5.13509 6.23291C5.67176 6.08891 8.07834 5.99984 9.99967 5.99984ZM8.66634 7.68994V12.3097L12.6663 9.99984L8.66634 7.68994Z" fill="black"/>
</svg>
