<svg width="20" height="20" viewBox="0 0 20 20" fill="none" xmlns="http://www.w3.org/2000/svg">
<g clip-path="url(#clip0_913_93)">
<path d="M17.701 6.86582C17.6162 6.5467 17.4491 6.25546 17.2163 6.02123C16.9836 5.787 16.6934 5.61801 16.3749 5.53116C15.2021 5.21582 10.5146 5.21582 10.5146 5.21582C10.5146 5.21582 5.82715 5.21582 4.65442 5.53116C4.33585 5.61801 4.04569 5.787 3.81295 6.02123C3.58022 6.25546 3.41309 6.5467 3.32828 6.86582C3.01465 8.04366 3.01465 10.4999 3.01465 10.4999C3.01465 10.4999 3.01465 12.9562 3.32828 14.134C3.41309 14.4531 3.58022 14.7444 3.81295 14.9786C4.04569 15.2128 4.33585 15.3818 4.65442 15.4687C5.82715 15.784 10.5146 15.784 10.5146 15.784C10.5146 15.784 15.2021 15.784 16.3749 15.4687C16.6934 15.3818 16.9836 15.2128 17.2163 14.9786C17.4491 14.7444 17.6162 14.4531 17.701 14.134C18.0146 12.9562 18.0146 10.4999 18.0146 10.4999C18.0146 10.4999 18.0146 8.04366 17.701 6.86582Z" fill="black"/>
<path d="M8.98047 12.7303V8.26953L12.9009 10.4999L8.98047 12.7303Z" fill="#FEFEFE"/>
</g>
<defs>
<clipPath id="clip0_913_93">
<rect width="15" height="15" fill="white" transform="translate(3 3)"/>
</clipPath>
</defs>
</svg>
